<svg xmlns="http://www.w3.org/2000/svg" xmlns:xlink="http://www.w3.org/1999/xlink" id="&#x5716;&#x5C64;_1" x="0px" y="0px" width="1366px" height="270.656px" viewBox="0 0 1366 270.656" xml:space="preserve"><g>	<defs>		<rect id="SVGID_1_" width="1366" height="270.656"></rect>	</defs>	<clipPath id="SVGID_2_">		<use xlink:href="#SVGID_1_"></use>	</clipPath>	<path clip-path="url(#SVGID_2_)" fill="#25608A" d="M690.037,187.657c0,18.508,4.596,31.912,13.657,39.839  c9.205,8.06,22.39,12.146,39.188,12.146h21.254v-38.26h-13.787c-6.392,0-10.976-1.354-14.013-4.142  c-3.088-2.829-4.655-7.233-4.655-13.089l0.287-58.459v-3.733h3.732h28.434V77.988H735.7h-3.732v-3.734l-0.287-28.762h-41.644  v37.623v40.783V187.657z"></path>	<path clip-path="url(#SVGID_2_)" fill="#25608A" d="M663.969,124.831v-2.872h-2.872h-35.894h-2.872v2.872v44.244  c0,10.107-2.638,18.1-7.841,23.754c-5.223,5.676-12.563,8.554-21.818,8.554c-6.085,0-11.46-1.261-15.974-3.748  c-4.562-2.507-8.025-6.257-10.296-11.149c-2.25-4.834-3.39-10.69-3.39-17.41l-0.001-44.244v-2.872h-2.872h-36.226h-2.872v2.872  l0.001,45.236c0,13.687,3.079,25.902,9.15,36.309c6.066,10.402,14.585,18.647,25.322,24.504c10.745,5.86,23.247,8.832,37.158,8.832  c13.907,0,26.41-2.917,37.163-8.67c10.721-5.737,19.181-13.922,25.146-24.329c5.964-10.411,8.988-22.741,8.988-36.646V124.831z"></path>	<path clip-path="url(#SVGID_2_)" fill="#25608A" d="M562.814,77.988c0,11.535-9.351,20.887-20.887,20.887  c-11.535,0-20.886-9.352-20.886-20.887c0-11.535,9.351-20.887,20.886-20.887C553.463,57.101,562.814,66.453,562.814,77.988"></path>	<path clip-path="url(#SVGID_2_)" fill="#25608A" d="M663.969,77.988c0,11.498-9.321,20.819-20.819,20.819  c-11.498,0-20.82-9.321-20.82-20.819s9.322-20.819,20.82-20.819C654.648,57.169,663.969,66.49,663.969,77.988"></path>	<path clip-path="url(#SVGID_2_)" fill="#00C1B6" d="M1129.466,78.289c-16.564,0-32.53,6.303-44.959,17.747l-2.161,1.99l-2.161-1.99  c-12.429-11.444-28.396-17.747-44.959-17.747c-37.397,0-67.822,31.564-67.822,70.361v90.424v0.496h0.479h40.398h0.479v-0.496  l0.001-90.424c0-15.139,11.871-27.457,26.464-27.457c14.276,0,25.889,11.591,26.438,26.388l0.005,0.099l-0.003,0.075  c-0.002,0.163-0.007,0.327-0.013,0.492l-0.002,0.061c-0.004,0.113-0.008,0.227-0.008,0.342v90.424v0.496h0.479h40.444h0.479v-0.496  l0.001-90.424c0-0.116-0.005-0.23-0.009-0.345l-0.002-0.056c-0.006-0.166-0.011-0.331-0.013-0.497l-0.001-0.096l0.003-0.074  c0.55-14.798,12.163-26.389,26.439-26.389c14.593,0,26.464,12.317,26.464,27.457v90.424v0.496h0.479h40.399h0.479v-0.496  l0.001-90.424C1197.287,109.853,1166.862,78.289,1129.466,78.289"></path>	<path clip-path="url(#SVGID_2_)" fill="#25608A" d="M378.263,204.098h2.677h75.248h2.678l0.858,2.536l11.204,33.078h43.984  L444.664,45.563h-51.626L322.79,239.712h43.411l11.203-33.078L378.263,204.098z M390.324,168.737l24.699-73.813l3.52-10.519  l3.557,10.507l24.987,73.812l1.669,4.931h-5.205h-49.687h-5.186L390.324,168.737z"></path>	<path clip-path="url(#SVGID_2_)" fill="#25608A" d="M790.202,239.57V30.944h41.578v61.139c6.473-5.279,13.454-8.91,20.939-11.144  c7.485-2.233,14.871-3.134,22.155-3.134c16.196,0,27.604,4.676,37.316,10.97c9.914,6.294,17.006,15.985,21.861,26.542  c4.856,10.558,7.284,22.232,7.284,35.022v89.23h-41.578v-89.23c0-9.542-3.336-17.562-10.013-24.059  c-6.477-6.7-14.467-10.05-23.977-10.05c-6.068,0-11.734,1.522-16.994,4.568c-5.06,2.842-9.205,6.801-12.443,11.877  c-3.035,4.874-4.552,10.354-4.552,16.445v90.449H790.202z"></path>	<path clip-path="url(#SVGID_2_)" fill="#00C1B6" d="M250.656,270.656H20c-11,0-20-9-20-20V20C0,9,9,0,20,0h230.656c11,0,20,9,20,20  v230.656C270.656,261.656,261.656,270.656,250.656,270.656"></path>	<path clip-path="url(#SVGID_2_)" fill="#FFFFFF" d="M188.243,123.697v-2.127h-2.127h-26.577h-2.127v2.127l0.001,26.935  c0,7.484-1.954,13.402-5.806,17.588c-3.868,4.203-9.303,6.334-16.155,6.334c-4.506,0-8.485-0.934-11.828-2.775  c-3.378-1.855-5.942-4.633-7.624-8.255c-1.665-3.579-2.51-7.916-2.51-12.892v-26.935v-2.127h-2.127H84.54h-2.127v2.127  l0.001,27.669c0,10.135,2.28,19.18,6.775,26.885c4.491,7.702,10.8,13.808,18.75,18.145c7.956,4.339,17.213,6.539,27.513,6.539  c10.297,0,19.555-2.16,27.517-6.421c7.938-4.246,14.202-10.308,18.619-18.014c4.416-7.709,6.655-16.838,6.655-27.134V123.697z"></path>	<path clip-path="url(#SVGID_2_)" fill="#FFFFFF" d="M113.344,83.188c0,8.541-6.924,15.465-15.465,15.465  c-8.542,0-15.466-6.924-15.466-15.465s6.924-15.465,15.466-15.465C106.42,67.722,113.344,74.646,113.344,83.188"></path>	<path clip-path="url(#SVGID_2_)" fill="#FFFFFF" d="M188.243,83.188c0,8.514-6.902,15.415-15.415,15.415  c-8.514,0-15.416-6.901-15.416-15.415c0-8.514,6.902-15.415,15.416-15.415C181.341,67.772,188.243,74.673,188.243,83.188"></path>	<path clip-path="url(#SVGID_2_)" fill="#FFFFFF" d="M243.498,76.09h-12.352V46.706c0-3.968-3.229-7.195-7.197-7.195h-29.384V27.158  h29.384c10.779,0,19.549,8.769,19.549,19.548V76.09z"></path>	<path clip-path="url(#SVGID_2_)" fill="#FFFFFF" d="M194.566,243.497v-12.352h29.384c3.968,0,7.195-3.229,7.195-7.197v-29.384  h12.353v29.384c0,10.779-8.769,19.549-19.548,19.549H194.566z"></path>	<path clip-path="url(#SVGID_2_)" fill="#FFFFFF" d="M76.091,27.158V39.51H46.707c-3.968,0-7.195,3.229-7.195,7.197v29.384H27.159  V46.708c0-10.779,8.769-19.549,19.548-19.549H76.091z"></path>	<path clip-path="url(#SVGID_2_)" fill="#FFFFFF" d="M27.159,194.566h12.352v29.384c0,3.968,3.229,7.194,7.197,7.194h29.384v12.354  H46.708c-10.779,0-19.549-8.77-19.549-19.548V194.566z"></path>	<path clip-path="url(#SVGID_2_)" fill-rule="evenodd" clip-rule="evenodd" fill="#00C1B6" d="M1320.47,191.484  c-4.175,4.643-12.945,12.192-25.841,12.192c-26.375,0-34.72-23.016-34.72-30.353h104.874c0.404-1.427,0.71-3.464,0.911-6.112  c0.203-2.852,0.306-5.297,0.306-7.334c0-15.075-2.534-28.724-7.601-40.947c-5.067-12.427-13.071-22.307-24.014-29.641  c-10.741-7.334-24.826-11.001-42.255-11.001c-14.592,0-27.662,3.361-39.213,10.084c-11.551,6.723-20.671,16.196-27.357,28.419  c-6.69,12.223-10.033,26.585-10.033,43.086c0,14.668,2.96,30.047,10.053,41.864c7.297,11.815,17.146,22.112,29.556,28.889  c12.985,7.093,24.101,8.939,39.614,8.939c15.518,0,31.155-4.86,43.322-14.845c13.678-11.229,20.76-26.436,23.419-33.241H1320.47z   M1269.029,122.903c5.269-6.723,13.071-10.084,23.407-10.084c9.726,0,17.224,2.954,22.494,8.862  c5.471,5.704,8.612,13.547,9.423,23.529h-64.747C1260.619,136.858,1263.759,129.422,1269.029,122.903"></path></g></svg>