<svg width="157" height="156" viewBox="0 0 157 156" fill="none" xmlns="http://www.w3.org/2000/svg"><path d="M59.5636 93.8595C53.2286 93.8595 48.0938 88.7234 48.0938 82.3897V36.4806C48.0925 30.1469 53.2286 25.0107 59.5636 25.0107C65.8986 25.0107 71.0335 30.1469 71.0335 36.4806V82.3884C71.0335 88.7234 65.8986 93.8583 59.5636 93.8583V93.8595Z" fill="#EB2F96"></path><path d="M80.0645 69.6006C73.7603 69.6006 67.7696 68.4927 63.1978 66.4811C60.28 65.1974 57.9142 63.5447 56.1681 61.5687C53.8859 58.9878 52.6797 55.8768 52.6797 52.5716C52.6797 48.7709 55.7611 45.6895 59.5619 45.6895C63.3626 45.6895 66.3567 48.6848 66.4428 52.4118C66.7219 52.761 67.7856 53.6377 70.1882 54.4333C72.9168 55.337 76.4249 55.835 80.0658 55.835C83.7067 55.835 87.2148 55.337 89.9433 54.4333C92.346 53.6377 93.4083 52.761 93.6887 52.4118C93.7735 48.6848 96.8218 45.6895 100.57 45.6895C104.318 45.6895 107.452 48.7709 107.452 52.5716C107.452 55.8768 106.246 58.9878 103.963 61.5687C102.217 63.5447 99.8515 65.1974 96.9337 66.4811C92.3607 68.4927 86.3712 69.6006 80.067 69.6006H80.0645Z" fill="#EB2F96"></path><path d="M100.568 93.8595C94.2325 93.8595 89.0977 88.7234 89.0977 82.3897V36.4806C89.0977 30.1456 94.2325 25.0107 100.568 25.0107C106.903 25.0107 112.037 30.1469 112.037 36.4806V82.3884C112.037 88.7234 106.903 93.8583 100.568 93.8583V93.8595Z" fill="#EB2F96"></path><path d="M59.564 44.739C59.4976 44.739 59.4288 44.739 59.3599 44.7366C59.2935 44.7353 59.2247 44.7317 59.157 44.728C59.0894 44.7243 59.0218 44.7206 58.9541 44.7157C58.8877 44.7108 58.8189 44.7046 58.7513 44.6985C58.6849 44.6911 58.616 44.6837 58.5508 44.6751C58.4844 44.6665 58.4156 44.6579 58.3504 44.648C58.2176 44.6284 58.0836 44.6038 57.9508 44.578C57.8192 44.5509 57.6864 44.5214 57.5561 44.4894C57.4257 44.4562 57.2942 44.4193 57.1663 44.38C57.0384 44.3419 56.9093 44.2988 56.7826 44.2521C56.6572 44.2066 56.5293 44.1587 56.4051 44.107C56.281 44.0554 56.158 44 56.035 43.9435C55.9145 43.8857 55.7928 43.8254 55.6748 43.7615C55.5555 43.6988 55.4374 43.6312 55.3219 43.5623C55.2063 43.4934 55.0907 43.4209 54.98 43.3471C54.8669 43.2733 54.7562 43.1946 54.648 43.1147C54.5939 43.0741 54.5398 43.0336 54.4869 42.993C54.4341 42.9524 54.38 42.9081 54.3283 42.8663C54.2754 42.8233 54.2238 42.7803 54.1722 42.736C54.1205 42.6917 54.0689 42.6462 54.0197 42.6007C53.9693 42.5552 53.9201 42.5085 53.8697 42.4618C53.8205 42.4163 53.7713 42.3671 53.7233 42.3191C53.6754 42.2712 53.6274 42.2232 53.5807 42.1728C53.5352 42.1236 53.4885 42.0732 53.443 42.024C53.3975 41.9736 53.352 41.922 53.3077 41.8716C53.2635 41.8199 53.2192 41.7683 53.1774 41.7154C53.1356 41.6638 53.0926 41.6097 53.0507 41.5568C53.0089 41.5039 52.9684 41.4498 52.929 41.3957C52.8491 41.2875 52.7716 41.1768 52.6966 41.0637C52.6228 40.953 52.5503 40.8375 52.4802 40.7219C52.4126 40.6075 52.3449 40.4882 52.2822 40.369C52.2195 40.2509 52.158 40.1292 52.1003 40.0087C52.0437 39.887 51.9884 39.7628 51.9367 39.6386C51.8851 39.5144 51.8371 39.3877 51.7904 39.2611C51.7449 39.1344 51.7019 39.0053 51.6637 38.8774C51.6244 38.7496 51.5875 38.618 51.5543 38.4877C51.5211 38.3573 51.4916 38.2245 51.4658 38.0929C51.4387 37.9614 51.4154 37.8274 51.3957 37.6933C51.3858 37.6269 51.376 37.5593 51.3686 37.4929C51.3612 37.4265 51.3526 37.3589 51.3453 37.2925C51.3391 37.2261 51.333 37.1572 51.3281 37.0896C51.3231 37.0232 51.3182 36.9543 51.3158 36.8867C51.3121 36.8203 51.3096 36.7514 51.3071 36.6826C51.3059 36.6162 51.3047 36.5473 51.3047 36.4785C51.3047 36.4096 51.3047 36.3432 51.3071 36.2743C51.3084 36.2067 51.3121 36.1391 51.3158 36.0715C51.3182 36.0038 51.3231 35.9362 51.3281 35.8686C51.333 35.8022 51.3391 35.7333 51.3453 35.6657C51.3514 35.5993 51.36 35.5304 51.3686 35.4653C51.3772 35.3976 51.3858 35.33 51.3957 35.2648C51.4154 35.132 51.4399 34.998 51.4658 34.8652C51.4928 34.7336 51.5223 34.6008 51.5543 34.4705C51.5863 34.3402 51.6244 34.2086 51.6637 34.0807C51.7019 33.9516 51.7449 33.8237 51.7904 33.6971C51.8359 33.5704 51.8851 33.4438 51.9367 33.3196C51.9884 33.1954 52.0437 33.0712 52.1003 32.9495C52.158 32.8277 52.2183 32.7072 52.2822 32.5892C52.3449 32.4699 52.4126 32.3519 52.4802 32.2363C52.5503 32.1207 52.6228 32.0051 52.6966 31.8944C52.7704 31.7813 52.8491 31.6707 52.929 31.5624C52.9684 31.5083 53.0102 31.4542 53.0507 31.4014C53.0926 31.3485 53.1356 31.2944 53.1774 31.2427C53.2192 31.1911 53.2635 31.1382 53.3077 31.0866C53.352 31.0362 53.3963 30.9845 53.443 30.9341C53.4885 30.8837 53.5352 30.8345 53.5807 30.7841C53.6274 30.7349 53.6754 30.687 53.7233 30.6378C53.7713 30.5898 53.8205 30.5419 53.8697 30.4951C53.9189 30.4496 53.9693 30.4029 54.0197 30.3574C54.0689 30.3119 54.1205 30.2664 54.1722 30.2222C54.2238 30.1779 54.2754 30.1349 54.3283 30.0918C54.3812 30.05 54.4341 30.007 54.4869 29.9652C54.5398 29.9234 54.5939 29.884 54.648 29.8434C54.7562 29.7635 54.8669 29.686 54.98 29.611C55.0907 29.5373 55.2063 29.4647 55.3219 29.3959C55.4362 29.327 55.5555 29.2606 55.6748 29.1967C55.7928 29.1327 55.9145 29.0725 56.035 29.0147C56.1568 28.9581 56.281 28.9028 56.4051 28.8511C56.5293 28.7995 56.656 28.7515 56.7826 28.7048C56.9093 28.6593 57.0372 28.6163 57.1663 28.5782C57.2942 28.5388 57.4257 28.5019 57.5561 28.4687C57.6864 28.4355 57.8192 28.406 57.9508 28.3802C58.0823 28.3531 58.2164 28.3298 58.3504 28.3101C58.4168 28.3003 58.4844 28.2904 58.5508 28.2831C58.6172 28.2744 58.6849 28.2671 58.7513 28.2597C58.8177 28.2535 58.8865 28.2474 58.9541 28.2425C59.0205 28.2376 59.0894 28.2326 59.157 28.2302C59.2234 28.2265 59.2923 28.224 59.3599 28.2216C59.4952 28.2191 59.6329 28.2191 59.7669 28.2216C59.8346 28.2228 59.9022 28.2265 59.971 28.2302C60.0374 28.2326 60.1063 28.2376 60.1739 28.2425C60.2403 28.2474 60.3092 28.2535 60.3768 28.2597C60.4432 28.2658 60.5108 28.2744 60.5772 28.2831C60.6436 28.2917 60.7125 28.3003 60.7777 28.3101C60.9105 28.3298 61.0445 28.3544 61.1773 28.3802C61.3089 28.4072 61.4417 28.4368 61.572 28.4687C61.7023 28.5019 61.8339 28.5388 61.9618 28.5782C62.0897 28.6163 62.2188 28.6593 62.3454 28.7048C62.4709 28.7503 62.5987 28.7995 62.7229 28.8511C62.8471 28.9028 62.9713 28.9581 63.0918 29.0147C63.2135 29.0725 63.3353 29.1327 63.4533 29.1967C63.5714 29.2594 63.6906 29.327 63.8062 29.3959C63.9218 29.4647 64.0374 29.5373 64.1481 29.611C64.2599 29.6848 64.3718 29.7635 64.48 29.8434C64.5342 29.884 64.5883 29.9246 64.6411 29.9652C64.694 30.0057 64.7481 30.05 64.7998 30.0918C64.8526 30.1349 64.9043 30.1779 64.9559 30.2222C65.0063 30.2664 65.058 30.3107 65.1084 30.3574C65.1576 30.4029 65.208 30.4496 65.2572 30.4951C65.3064 30.5419 65.3555 30.5898 65.4035 30.6378C65.4514 30.687 65.4994 30.7349 65.5461 30.7841C65.5929 30.8333 65.6396 30.8837 65.6851 30.9341C65.7306 30.9845 65.7761 31.0362 65.8203 31.0866C65.8634 31.1382 65.9076 31.1899 65.9507 31.2427C65.9925 31.2956 66.0355 31.3485 66.0773 31.4014C66.1191 31.4542 66.1585 31.5083 66.1991 31.5624C66.279 31.6707 66.3564 31.7813 66.4315 31.8944C66.5052 32.0051 66.5778 32.1207 66.6466 32.2363C66.7155 32.3506 66.7819 32.4687 66.8458 32.5892C66.9085 32.7072 66.97 32.829 67.0278 32.9495C67.0844 33.0712 67.1397 33.1954 67.1914 33.3196C67.243 33.4438 67.291 33.5704 67.3377 33.6971C67.3832 33.8237 67.4262 33.9516 67.4643 34.0807C67.5037 34.2086 67.5406 34.3402 67.5738 34.4705C67.607 34.6008 67.6365 34.7324 67.6623 34.8652C67.6894 34.9968 67.7127 35.1308 67.7324 35.2648C67.7422 35.3312 67.7521 35.3989 67.7594 35.4653C67.7681 35.5317 67.7754 35.5993 67.7828 35.6657C67.789 35.7333 67.7951 35.8009 67.8 35.8686C67.8049 35.9362 67.8099 36.0038 67.8123 36.0715C67.816 36.1391 67.8185 36.2067 67.8209 36.2743C67.8222 36.342 67.8234 36.4108 67.8234 36.4785C67.8234 36.5461 67.8234 36.6149 67.8209 36.6826C67.8197 36.7502 67.816 36.8191 67.8123 36.8867C67.8099 36.9543 67.8049 37.022 67.8 37.0896C67.7951 37.1572 67.789 37.2248 67.7828 37.2925C67.7767 37.3601 67.7681 37.4265 67.7594 37.4929C67.7508 37.5605 67.7422 37.6282 67.7324 37.6933C67.7127 37.8261 67.6881 37.9602 67.6623 38.0929C67.6353 38.2245 67.6057 38.3573 67.5738 38.4877C67.5406 38.618 67.5037 38.7496 67.4643 38.8774C67.4262 39.0053 67.3832 39.1344 67.3377 39.2611C67.2922 39.3865 67.243 39.5144 67.1914 39.6386C67.1397 39.7628 67.0844 39.887 67.0278 40.0087C66.97 40.1304 66.9098 40.2509 66.8458 40.369C66.7831 40.4882 66.7155 40.6063 66.6466 40.7219C66.5778 40.8375 66.5052 40.953 66.4315 41.0637C66.3577 41.1768 66.279 41.2875 66.1991 41.3957C66.1585 41.4498 66.1179 41.5039 66.0773 41.5568C66.0367 41.6097 65.9925 41.6638 65.9507 41.7154C65.9076 41.7683 65.8634 41.8199 65.8203 41.8716C65.7761 41.922 65.7306 41.9736 65.6851 42.024C65.6396 42.0732 65.5929 42.1236 65.5461 42.1728C65.5006 42.222 65.4514 42.2712 65.4035 42.3191C65.3555 42.3671 65.3076 42.4151 65.2572 42.4618C65.208 42.5085 65.1576 42.5552 65.1084 42.6007C65.058 42.6462 65.0063 42.6917 64.9559 42.736C64.9043 42.7803 64.8526 42.8233 64.7998 42.8663C64.7469 42.9081 64.694 42.9512 64.6411 42.993C64.5883 43.0348 64.5342 43.0741 64.48 43.1147C64.3718 43.1946 64.2599 43.2721 64.1481 43.3471C64.0374 43.4209 63.9218 43.4934 63.8062 43.5623C63.6919 43.6312 63.5726 43.6976 63.4533 43.7615C63.3353 43.8254 63.2135 43.8857 63.0918 43.9435C62.9713 44 62.8471 44.0554 62.7229 44.107C62.5987 44.1587 62.4721 44.2066 62.3454 44.2521C62.2188 44.2976 62.0897 44.3406 61.9618 44.38C61.8339 44.4193 61.7023 44.4562 61.572 44.4894C61.4417 44.5214 61.3089 44.5521 61.1773 44.578C61.0457 44.605 60.9117 44.6284 60.7777 44.648C60.7113 44.6579 60.6436 44.6677 60.5772 44.6751C60.5108 44.6825 60.4432 44.6911 60.3768 44.6985C60.3092 44.7046 60.2416 44.7108 60.1739 44.7157C60.1075 44.7206 60.0387 44.7243 59.971 44.728C59.9034 44.7317 59.8358 44.7341 59.7669 44.7366C59.7005 44.7366 59.6317 44.739 59.5628 44.739H59.564Z" fill="#FFF0F6"></path><path d="M100.565 44.739C100.499 44.739 100.43 44.739 100.361 44.7366C100.295 44.7353 100.226 44.7317 100.158 44.728C100.091 44.7243 100.023 44.7206 99.9554 44.7157C99.8877 44.7108 99.8201 44.7046 99.7525 44.6985C99.6861 44.6911 99.6172 44.6837 99.5508 44.6751C99.4844 44.6665 99.4168 44.6579 99.3504 44.648C99.2176 44.6284 99.0836 44.6038 98.9508 44.578C98.8192 44.5509 98.6864 44.5214 98.5561 44.4894C98.4257 44.4562 98.2942 44.4193 98.1663 44.38C98.0384 44.3419 97.9093 44.2988 97.7826 44.2521C97.656 44.2066 97.5293 44.1587 97.4051 44.107C97.281 44.0554 97.1568 44 97.035 43.9435C96.9133 43.8857 96.7916 43.8254 96.6735 43.7615C96.5555 43.6988 96.4362 43.6312 96.3218 43.5623C96.2063 43.4934 96.0907 43.4209 95.9788 43.3471C95.8669 43.2733 95.7562 43.1946 95.648 43.1147C95.5939 43.0741 95.5398 43.0336 95.4869 42.993C95.4341 42.9512 95.38 42.9081 95.3283 42.8663C95.2754 42.8233 95.2238 42.7803 95.1722 42.736C95.1205 42.6917 95.0689 42.6462 95.0197 42.6007C94.9693 42.5552 94.9201 42.5085 94.8697 42.4618C94.8205 42.4163 94.7713 42.3671 94.7233 42.3191C94.6754 42.2712 94.6274 42.2232 94.5807 42.1728C94.5352 42.1236 94.4885 42.0732 94.443 42.024C94.3975 41.9736 94.352 41.922 94.3077 41.8716C94.2635 41.8199 94.2192 41.7683 94.1774 41.7154C94.1356 41.6638 94.0926 41.6097 94.0507 41.5568C94.0089 41.5039 93.9684 41.4498 93.929 41.3957C93.8491 41.2875 93.7716 41.1768 93.6966 41.0637C93.6228 40.953 93.5503 40.8375 93.4802 40.7219C93.4126 40.6075 93.3449 40.4882 93.2822 40.369C93.2195 40.2509 93.158 40.1292 93.1003 40.0087C93.0437 39.887 92.9884 39.7628 92.9367 39.6386C92.8851 39.5144 92.8371 39.3877 92.7904 39.2611C92.7449 39.1344 92.7019 39.0053 92.6637 38.8774C92.6244 38.7496 92.5875 38.618 92.5543 38.4877C92.5211 38.3573 92.4916 38.2245 92.4658 38.0929C92.4387 37.9614 92.4154 37.8274 92.3957 37.6933C92.3858 37.6269 92.376 37.5593 92.3686 37.4929C92.3612 37.4265 92.3526 37.3589 92.3453 37.2925C92.3391 37.2261 92.333 37.1572 92.3281 37.0896C92.3231 37.0232 92.3182 36.9543 92.3158 36.8867C92.3121 36.8203 92.3096 36.7514 92.3071 36.6826C92.3059 36.6162 92.3047 36.5473 92.3047 36.4785C92.3047 36.4096 92.3047 36.3432 92.3071 36.2743C92.3084 36.2067 92.3121 36.1391 92.3158 36.0715C92.3182 36.0038 92.3231 35.9362 92.3281 35.8686C92.333 35.8022 92.3391 35.7333 92.3453 35.6657C92.3514 35.5993 92.36 35.5304 92.3686 35.4653C92.3772 35.3976 92.3858 35.33 92.3957 35.2648C92.4154 35.132 92.4399 34.998 92.4658 34.8652C92.4928 34.7336 92.5223 34.6008 92.5543 34.4705C92.5875 34.3402 92.6244 34.2086 92.6637 34.0807C92.7019 33.9516 92.7449 33.8237 92.7904 33.6971C92.8359 33.5704 92.8851 33.4438 92.9367 33.3196C92.9884 33.1954 93.0437 33.0712 93.1003 32.9495C93.158 32.8277 93.2183 32.7072 93.2822 32.5892C93.3449 32.4699 93.4126 32.3519 93.4802 32.2363C93.5503 32.1207 93.6228 32.0051 93.6966 31.8944C93.7704 31.7813 93.8491 31.6707 93.929 31.5624C93.9684 31.5083 94.0102 31.4542 94.0507 31.4014C94.0926 31.3485 94.1356 31.2944 94.1774 31.2427C94.2192 31.1911 94.2635 31.1382 94.3077 31.0866C94.352 31.0362 94.3963 30.9845 94.443 30.9341C94.4885 30.8837 94.5352 30.8345 94.5807 30.7841C94.6274 30.7349 94.6754 30.687 94.7233 30.6378C94.7713 30.5898 94.8205 30.5419 94.8697 30.4951C94.9189 30.4496 94.9693 30.4029 95.0197 30.3574C95.0689 30.3119 95.1205 30.2664 95.1722 30.2222C95.2238 30.1779 95.2754 30.1349 95.3283 30.0918C95.3812 30.05 95.4341 30.007 95.4869 29.9652C95.5398 29.9234 95.5939 29.884 95.648 29.8434C95.7562 29.7635 95.8669 29.686 95.9788 29.611C96.0907 29.5373 96.2063 29.4647 96.3218 29.3959C96.4362 29.327 96.5555 29.2606 96.6735 29.1967C96.7916 29.1327 96.9133 29.0725 97.035 29.0147C97.1555 28.9581 97.281 28.9028 97.4051 28.8511C97.5293 28.7995 97.656 28.7515 97.7826 28.7048C97.9093 28.6593 98.0372 28.6163 98.1663 28.5782C98.2942 28.5388 98.4257 28.5019 98.5561 28.4687C98.6864 28.4355 98.818 28.406 98.9508 28.3802C99.0823 28.3531 99.2164 28.3298 99.3504 28.3101C99.4168 28.3003 99.4844 28.2904 99.5508 28.2831C99.6172 28.2744 99.6861 28.2671 99.7525 28.2597C99.8189 28.2535 99.8877 28.2474 99.9554 28.2425C100.022 28.2376 100.091 28.2326 100.158 28.2302C100.225 28.2265 100.294 28.224 100.361 28.2216C100.496 28.2191 100.634 28.2191 100.768 28.2216C100.836 28.2228 100.903 28.2265 100.972 28.2302C101.039 28.2326 101.108 28.2376 101.175 28.2425C101.242 28.2474 101.31 28.2535 101.378 28.2597C101.444 28.2658 101.512 28.2744 101.578 28.2831C101.645 28.2917 101.714 28.3003 101.779 28.3101C101.912 28.3298 102.046 28.3544 102.179 28.3802C102.31 28.4072 102.443 28.4368 102.573 28.4687C102.704 28.5019 102.835 28.5388 102.963 28.5782C103.091 28.6163 103.22 28.6593 103.347 28.7048C103.472 28.7503 103.6 28.7995 103.724 28.8511C103.848 28.9028 103.971 28.9581 104.093 29.0147C104.215 29.0725 104.337 29.1327 104.455 29.1967C104.573 29.2594 104.692 29.327 104.807 29.3959C104.923 29.4647 105.039 29.5373 105.149 29.611C105.261 29.6848 105.373 29.7635 105.481 29.8434C105.535 29.884 105.589 29.9246 105.642 29.9652C105.695 30.007 105.749 30.05 105.801 30.0918C105.854 30.1349 105.905 30.1779 105.957 30.2222C106.008 30.2664 106.059 30.3107 106.11 30.3574C106.159 30.4029 106.209 30.4496 106.258 30.4951C106.308 30.5419 106.357 30.5898 106.405 30.6378C106.453 30.687 106.501 30.7349 106.547 30.7841C106.594 30.8333 106.641 30.8837 106.686 30.9341C106.732 30.9845 106.777 31.0362 106.822 31.0866C106.865 31.1382 106.909 31.1899 106.952 31.2427C106.994 31.2956 107.037 31.3485 107.079 31.4014C107.119 31.4542 107.16 31.5083 107.2 31.5624C107.28 31.6707 107.358 31.7813 107.433 31.8944C107.506 32.0051 107.579 32.1207 107.648 32.2363C107.717 32.3506 107.783 32.4687 107.847 32.5892C107.91 32.7072 107.971 32.829 108.028 32.9495C108.086 33.0712 108.141 33.1954 108.193 33.3196C108.244 33.4438 108.292 33.5704 108.338 33.6971C108.383 33.8237 108.426 33.9516 108.466 34.0807C108.505 34.2086 108.542 34.3402 108.574 34.4705C108.607 34.6008 108.636 34.7324 108.664 34.8652C108.691 34.9968 108.714 35.1308 108.734 35.2648C108.743 35.3312 108.753 35.3989 108.761 35.4653C108.769 35.5317 108.777 35.5993 108.784 35.6657C108.79 35.7333 108.796 35.8009 108.801 35.8686C108.806 35.9362 108.81 36.0038 108.814 36.0715C108.817 36.1391 108.82 36.2067 108.821 36.2743C108.822 36.342 108.823 36.4108 108.823 36.4785C108.823 36.5461 108.823 36.6149 108.821 36.6826C108.821 36.7502 108.817 36.8191 108.814 36.8867C108.81 36.9543 108.806 37.022 108.801 37.0896C108.796 37.1572 108.79 37.2248 108.784 37.2925C108.777 37.3601 108.769 37.4265 108.761 37.4929C108.752 37.5593 108.743 37.6282 108.734 37.6933C108.714 37.8261 108.689 37.9602 108.664 38.0929C108.636 38.2245 108.607 38.3573 108.574 38.4877C108.542 38.618 108.505 38.7496 108.466 38.8774C108.426 39.0053 108.384 39.1344 108.338 39.2611C108.292 39.3865 108.244 39.5144 108.193 39.6386C108.141 39.7628 108.086 39.887 108.028 40.0087C107.971 40.1304 107.91 40.2509 107.847 40.369C107.784 40.4882 107.717 40.6063 107.648 40.7219C107.579 40.8375 107.506 40.953 107.433 41.0637C107.359 41.1768 107.28 41.2875 107.2 41.3957C107.16 41.4498 107.119 41.5039 107.079 41.5568C107.037 41.6097 106.994 41.6638 106.952 41.7154C106.909 41.7683 106.865 41.8199 106.822 41.8716C106.777 41.922 106.732 41.9736 106.686 42.024C106.641 42.0732 106.594 42.1236 106.547 42.1728C106.502 42.222 106.453 42.2712 106.405 42.3191C106.357 42.3671 106.309 42.4151 106.258 42.4618C106.209 42.5085 106.159 42.5552 106.11 42.6007C106.059 42.6462 106.008 42.6917 105.957 42.736C105.905 42.7803 105.854 42.8233 105.801 42.8663C105.748 42.9081 105.695 42.9512 105.642 42.993C105.589 43.0348 105.535 43.0741 105.481 43.1147C105.373 43.1946 105.261 43.2721 105.149 43.3471C105.039 43.4209 104.923 43.4934 104.807 43.5623C104.693 43.6312 104.574 43.6976 104.455 43.7615C104.337 43.8254 104.215 43.8857 104.093 43.9435C103.971 44 103.848 44.0554 103.724 44.107C103.6 44.1587 103.473 44.2066 103.347 44.2521C103.22 44.2976 103.091 44.3406 102.963 44.38C102.835 44.4193 102.704 44.4562 102.573 44.4894C102.443 44.5214 102.31 44.5521 102.179 44.578C102.047 44.605 101.913 44.6284 101.779 44.648C101.712 44.6579 101.645 44.6677 101.578 44.6751C101.512 44.6825 101.444 44.6911 101.378 44.6985C101.31 44.7046 101.243 44.7108 101.175 44.7157C101.109 44.7206 101.04 44.7243 100.972 44.728C100.905 44.7317 100.837 44.7341 100.768 44.7366C100.702 44.7366 100.633 44.739 100.564 44.739H100.565Z" fill="#FFF0F6"></path><path d="M10.0185 119.484C9.73317 119.58 9.4413 119.563 9.14289 119.43C8.84448 119.299 8.57656 119.09 8.33914 118.805C8.10172 118.519 7.91657 118.186 7.78588 117.805C7.65519 117.424 7.58984 117.019 7.58984 116.59C7.89915 116.542 8.23241 116.489 8.58963 116.428C8.94685 116.37 9.28011 116.315 9.58941 116.267C9.94664 116.219 10.2908 116.171 10.6262 116.123C10.6502 114.743 10.6807 113.425 10.7155 112.174C10.7504 110.924 10.7874 109.805 10.8223 108.816C10.8571 107.827 10.8941 106.993 10.929 106.315C10.9638 105.638 10.9943 105.178 11.0183 104.939C11.0183 104.819 11.0771 104.701 11.1969 104.581C11.3864 104.438 11.6674 104.237 12.0377 103.974C12.4058 103.712 12.8284 103.473 13.3054 103.259C13.7105 103.094 13.9784 103.146 14.1091 103.42C14.2398 103.695 14.3052 104.213 14.3052 104.976C14.2573 106.047 14.2093 107.489 14.1614 109.299C14.1135 111.109 14.0656 113.242 14.0177 115.697C14.3988 115.649 14.7691 115.614 15.1263 115.59C15.4836 115.566 15.8648 115.542 16.2699 115.518C17.3655 115.47 18.4328 115.411 19.4675 115.339C20.5021 115.267 21.4148 115.267 22.2011 115.339C22.3209 111.933 22.3557 109.378 22.3078 107.674C22.2599 105.971 22.2359 104.965 22.2359 104.655C22.2359 104.512 22.3906 104.346 22.6999 104.154C23.0092 103.965 23.349 103.791 23.7193 103.636C24.0874 103.481 24.4272 103.375 24.7387 103.314C25.048 103.255 25.2157 103.272 25.2396 103.368C25.2636 103.536 25.2701 103.952 25.2571 104.618C25.244 105.285 25.2331 106.221 25.2222 107.424C25.2091 108.626 25.2091 110.123 25.2222 111.909C25.2331 113.695 25.2767 115.782 25.3464 118.162C25.2985 119.258 25.2745 120.401 25.2745 121.593C25.2745 122.617 25.2985 123.76 25.3464 125.024C25.3943 126.287 25.501 127.561 25.6687 128.846C25.3594 129.108 25.0262 129.31 24.669 129.454C24.3117 129.598 23.9654 129.715 23.6321 129.811C23.251 129.907 22.8698 129.977 22.4886 130.025C22.2751 130.049 22.1009 130.007 21.9702 129.9C21.8395 129.794 21.7502 129.663 21.7023 129.508C21.6544 129.354 21.6239 129.193 21.613 129.027C21.5999 128.859 21.5955 128.705 21.5955 128.563C21.5955 128.254 21.6021 127.962 21.613 127.687C21.6239 127.413 21.6435 127.193 21.6674 127.025C21.7153 126.002 21.7742 124.762 21.846 123.309C21.9179 121.856 21.9898 120.236 22.0595 118.45C21.8918 118.426 21.7371 118.408 21.5955 118.395C21.4518 118.384 21.2862 118.365 21.0946 118.341C20.0229 118.269 18.8619 118.269 17.6095 118.341C16.357 118.413 15.1372 118.533 13.9458 118.698C13.9218 119.866 13.9218 120.968 13.9458 122.005C13.9697 123.041 14.0002 123.982 14.0351 124.828C14.0699 125.673 14.1113 126.4 14.1592 127.008C14.2072 127.616 14.2551 128.062 14.303 128.347C14.327 128.585 14.2899 128.753 14.1963 128.848C14.1004 128.968 13.9632 129.123 13.7846 129.312C13.606 129.502 13.3794 129.687 13.105 129.866C12.8305 130.044 12.5038 130.199 12.1226 130.33C11.7415 130.46 11.3015 130.526 10.8005 130.526C10.5631 130.526 10.4433 130.419 10.4433 130.203C10.4433 129.894 10.4498 129.404 10.4607 128.737C10.4716 128.071 10.4846 127.261 10.4955 126.306C10.5064 125.355 10.5195 124.287 10.5304 123.109C10.5413 121.931 10.5609 120.674 10.5848 119.338C10.465 119.362 10.3648 119.386 10.2821 119.41C10.1993 119.434 10.11 119.458 10.0142 119.482L10.0185 119.484Z" fill="#EB2F96"></path><path d="M45.4423 125.416C45.4902 125.584 45.5621 125.739 45.6558 125.88C45.7277 126 45.8279 126.113 45.9586 126.22C46.0892 126.327 46.2504 126.392 46.4399 126.416C46.2722 126.749 46.1067 126.976 45.9389 127.096C45.8431 127.168 45.7603 127.215 45.6885 127.239C45.475 127.311 45.1526 127.346 44.7235 127.346C44.2944 127.346 43.8784 127.215 43.4732 126.954C43.3295 126.834 43.1988 126.656 43.0812 126.418C42.9614 126.229 42.8612 125.961 42.7784 125.615C42.6956 125.27 42.6303 124.824 42.5824 124.275C42.2491 124.989 41.8723 125.556 41.4563 125.972C41.0402 126.388 40.6285 126.693 40.2234 126.882C39.7703 127.146 39.3064 127.298 38.8294 127.346C38.2325 127.394 37.6684 127.292 37.1326 127.043C36.5967 126.795 36.1437 126.412 35.7756 125.9C35.4053 125.388 35.1265 124.763 34.9348 124.024C34.7431 123.286 34.6843 122.452 34.7562 121.524C34.828 120.548 35.0176 119.679 35.3269 118.914C35.6362 118.152 36.0064 117.472 36.4355 116.878C36.8646 116.283 37.3155 115.776 37.7926 115.36C38.2696 114.944 38.727 114.597 39.1692 114.323C39.6092 114.048 39.9903 113.846 40.3127 113.715C40.6351 113.584 40.842 113.506 40.9378 113.482C41.1992 113.41 41.4258 113.386 41.6174 113.41C41.8069 113.434 41.9747 113.541 42.1184 113.733C42.1663 113.804 42.2252 113.887 42.297 113.983C42.345 114.079 42.4038 114.203 42.4756 114.358C42.5475 114.512 42.6063 114.684 42.6543 114.876C42.0836 115.14 41.5456 115.429 41.0468 115.752C40.548 116.074 40.0884 116.462 39.6701 116.913C39.2519 117.366 38.8904 117.912 38.5811 118.557C38.2718 119.2 38.0322 119.986 37.8666 120.916C37.6292 122.084 37.6945 123.025 38.0626 123.739C38.4308 124.454 38.9383 124.752 39.5808 124.632C39.962 124.512 40.3323 124.288 40.6895 123.953C40.9988 123.667 41.3256 123.238 41.6719 122.665C42.016 122.095 42.345 121.308 42.6543 120.306C42.7741 118.877 42.8742 117.751 42.957 116.93C43.0398 116.109 43.1182 115.484 43.1901 115.055C43.2859 114.554 43.3556 114.22 43.4035 114.055C43.4754 113.935 43.617 113.822 43.8326 113.715C44.0483 113.608 44.2857 113.519 44.5471 113.447C44.8085 113.375 45.0481 113.334 45.2615 113.323C45.475 113.312 45.6188 113.316 45.6906 113.34C45.7386 113.364 45.7625 113.656 45.7625 114.216C45.7625 114.776 45.7451 115.479 45.7081 116.325C45.6732 117.17 45.6296 118.089 45.5839 119.076C45.536 120.064 45.4946 120.999 45.4597 121.881C45.4249 122.763 45.4009 123.532 45.3879 124.186C45.3748 124.841 45.3944 125.253 45.4423 125.418V125.416Z" fill="#EB2F96"></path><path d="M58.7128 126.274C58.6889 126.418 58.5647 126.566 58.3382 126.721C58.1117 126.875 57.8503 127.013 57.5519 127.132C57.2535 127.252 56.9747 127.328 56.7111 127.365C56.4475 127.4 56.2689 127.372 56.1753 127.276C56.0794 127.18 55.9248 127.002 55.7113 126.74C55.4978 126.479 55.365 126.05 55.3192 125.453C55.2713 124.834 55.2474 124.055 55.2474 123.111C55.2474 122.168 55.2343 121.127 55.2125 119.984V118.555C55.2125 118.126 55.206 117.625 55.1951 117.054C55.182 116.483 55.1646 115.886 55.1406 115.268C55.3541 115.148 55.5741 115.035 55.8028 114.928C56.0293 114.821 56.2363 114.732 56.4279 114.66C56.6414 114.564 56.844 114.495 57.0356 114.447C57.5366 114.303 57.9156 114.22 58.1792 114.196C58.4406 114.172 58.5952 114.255 58.6431 114.447C58.6671 114.59 58.654 114.935 58.6083 115.483C58.5604 115.96 58.5016 116.681 58.4297 117.646C58.3578 118.611 58.238 119.951 58.0725 121.667C58.3818 120.905 58.6388 120.249 58.8414 119.703C59.0439 119.156 59.216 118.714 59.3598 118.38C59.5035 117.975 59.6342 117.655 59.7518 117.415C59.8716 117.106 60.0263 116.76 60.2158 116.379C60.4053 115.997 60.6035 115.64 60.8061 115.307C61.0086 114.974 61.1981 114.675 61.3768 114.414C61.5554 114.153 61.6926 113.998 61.7884 113.95C61.8603 113.902 62.0738 113.902 62.431 113.95C62.7882 113.998 63.1694 114.111 63.5745 114.29C63.9797 114.468 64.3718 114.719 64.7529 115.041C65.1341 115.364 65.3846 115.751 65.5044 116.202C65.6482 116.727 65.7004 117.418 65.6656 118.276C65.6307 119.134 65.5698 120.016 65.487 120.92C65.4042 121.826 65.3389 122.685 65.2909 123.493C65.243 124.303 65.2909 124.921 65.4347 125.351C65.4826 125.588 65.5545 125.804 65.6482 125.993C65.6961 126.185 65.7614 126.357 65.8442 126.512C65.927 126.666 66.0163 126.779 66.1121 126.851C65.5414 127.115 65.0753 127.304 64.7181 127.422C64.3609 127.542 64.0864 127.625 63.8969 127.673C63.6595 127.744 63.4918 127.768 63.3959 127.744C63.1825 127.673 62.9973 127.494 62.8427 127.209C62.688 126.923 62.5508 126.47 62.431 125.852C62.3831 125.662 62.3657 125.346 62.3765 124.904C62.3874 124.464 62.4179 123.963 62.4658 123.403C62.5138 122.844 62.566 122.26 62.627 121.652C62.6858 121.044 62.7338 120.474 62.7708 119.936C62.8078 119.398 62.8361 118.936 62.8601 118.542C62.8841 118.15 62.8841 117.879 62.8601 117.738C62.7403 117.309 62.5748 117.006 62.3591 116.827C62.1435 116.649 61.9779 116.631 61.8581 116.773C61.5488 117.13 61.2199 117.707 60.8758 118.507C60.5294 119.306 60.2027 120.175 59.8934 121.116C59.5841 122.057 59.3227 122.992 59.1071 123.922C58.8915 124.852 58.7608 125.638 58.715 126.281L58.7128 126.274Z" fill="#EB2F96"></path><path d="M84.9931 125.416C85.041 125.584 85.1129 125.739 85.2066 125.88C85.2785 126 85.3786 126.113 85.5093 126.22C85.64 126.327 85.8012 126.392 85.9907 126.416C85.823 126.749 85.6575 126.976 85.4897 127.096C85.3939 127.168 85.3111 127.215 85.2392 127.239C85.0258 127.311 84.7034 127.346 84.2743 127.346C83.8452 127.346 83.4292 127.215 83.024 126.954C82.8803 126.834 82.7496 126.656 82.632 126.418C82.5122 126.229 82.412 125.961 82.3292 125.615C82.2464 125.27 82.1811 124.824 82.1332 124.275C81.7999 124.989 81.4231 125.556 81.007 125.972C80.591 126.388 80.1793 126.693 79.7742 126.882C79.3211 127.146 78.8572 127.298 78.3802 127.346C77.7833 127.394 77.2192 127.292 76.6833 127.043C76.1475 126.795 75.6944 126.412 75.3263 125.9C74.956 125.388 74.6772 124.763 74.4856 124.024C74.2939 123.286 74.2351 122.452 74.3069 121.524C74.3788 120.548 74.5683 119.679 74.8776 118.914C75.1869 118.152 75.5572 117.472 75.9863 116.878C76.4154 116.283 76.8663 115.776 77.3433 115.36C77.8204 114.944 78.2778 114.597 78.7199 114.323C79.1599 114.048 79.5411 113.846 79.8635 113.715C80.1859 113.584 80.3928 113.506 80.4886 113.482C80.75 113.41 80.9765 113.386 81.1682 113.41C81.3577 113.434 81.5254 113.541 81.6692 113.733C81.7171 113.804 81.7759 113.887 81.8478 113.983C81.8957 114.079 81.9545 114.203 82.0264 114.358C82.0983 114.512 82.1571 114.684 82.205 114.876C81.6344 115.14 81.0963 115.429 80.5975 115.752C80.0987 116.074 79.6391 116.462 79.2209 116.913C78.8027 117.366 78.4411 117.912 78.1318 118.557C77.8225 119.2 77.5829 119.986 77.4174 120.916C77.18 122.084 77.2453 123.025 77.6134 123.739C77.9815 124.454 78.4891 124.752 79.1316 124.632C79.5128 124.512 79.8831 124.288 80.2403 123.953C80.5496 123.667 80.8763 123.238 81.2227 122.665C81.5668 122.095 81.8957 121.308 82.205 120.306C82.3248 118.877 82.425 117.751 82.5078 116.93C82.5906 116.109 82.669 115.484 82.7409 115.055C82.8367 114.554 82.9064 114.22 82.9543 114.055C83.0262 113.935 83.1678 113.822 83.3834 113.715C83.5991 113.608 83.8365 113.519 84.0979 113.447C84.3593 113.375 84.5989 113.334 84.8123 113.323C85.0258 113.312 85.1695 113.316 85.2414 113.34C85.2893 113.364 85.3133 113.656 85.3133 114.216C85.3133 114.776 85.2959 115.479 85.2588 116.325C85.224 117.17 85.1804 118.089 85.1347 119.076C85.0868 120.064 85.0454 120.999 85.0105 121.881C84.9757 122.763 84.9517 123.532 84.9387 124.186C84.9256 124.841 84.9452 125.253 84.9931 125.418V125.416Z" fill="#EB2F96"></path><path d="M99.1937 104.083C99.1458 104.941 99.063 105.93 98.9432 107.049C98.8234 108.169 98.6993 109.371 98.5686 110.659C98.4379 111.946 98.305 113.292 98.1765 114.697C98.0458 116.104 97.9325 117.52 97.8367 118.949C97.7409 120.378 97.6995 121.539 97.7125 122.434C97.7234 123.327 97.7779 124.059 97.8737 124.632C97.9696 125.202 98.1003 125.655 98.2658 125.989C98.4313 126.322 98.647 126.644 98.9084 126.953C98.5991 127.145 98.3115 127.287 98.0502 127.383C97.7866 127.478 97.5622 127.548 97.3706 127.596C97.1331 127.668 96.9175 127.703 96.728 127.703C96.3708 127.703 96.0615 127.531 95.7979 127.184C95.5344 126.84 95.3274 126.394 95.1728 125.845C95.0181 125.298 94.8983 124.684 94.8156 124.004C94.7328 123.325 94.6914 122.652 94.6914 121.985C94.6914 121.271 94.7154 120.443 94.7633 119.502C94.8112 118.561 94.8635 117.561 94.9245 116.5C94.9833 115.44 95.0486 114.333 95.1205 113.177C95.1924 112.022 95.2512 110.872 95.2991 109.728C95.347 108.848 95.395 108.049 95.4429 107.335C95.4908 106.716 95.5256 106.15 95.5496 105.638C95.5736 105.126 95.5605 104.821 95.5148 104.727C95.6585 104.538 95.8371 104.394 96.0506 104.298C96.2641 104.202 96.4666 104.12 96.6583 104.048C96.8957 103.976 97.1353 103.917 97.3727 103.869H98.0523C98.2418 103.869 98.4444 103.887 98.66 103.924C98.8757 103.961 99.0521 104.013 99.1959 104.085L99.1937 104.083Z" fill="#EB2F96"></path><path d="M110.069 107.476C110.546 107.476 110.999 107.619 111.426 107.905C111.853 108.19 112.069 108.571 112.069 109.048C112.069 109.405 111.979 109.752 111.801 110.085C111.622 110.418 111.402 110.717 111.138 110.978C110.875 111.239 110.579 111.449 110.245 111.603C109.912 111.758 109.603 111.836 109.315 111.836C108.934 111.836 108.625 111.771 108.385 111.64C108.148 111.51 107.963 111.355 107.832 111.176C107.701 110.998 107.612 110.802 107.564 110.586C107.516 110.373 107.492 110.17 107.492 109.978C107.492 109.741 107.527 109.473 107.599 109.175C107.671 108.876 107.801 108.604 107.991 108.353C108.18 108.103 108.444 107.896 108.777 107.728C109.111 107.563 109.54 107.478 110.065 107.478L110.069 107.476ZM107.568 114.587C107.568 114.444 107.758 114.289 108.139 114.123C108.52 113.958 108.943 113.821 109.407 113.712C109.871 113.603 110.3 113.546 110.694 113.533C111.086 113.522 111.284 113.612 111.284 113.801C111.284 114.158 111.26 114.666 111.213 115.319C111.165 115.975 111.106 116.665 111.034 117.393C110.962 118.12 110.89 118.846 110.82 119.573C110.749 120.301 110.701 120.913 110.677 121.414C110.629 121.939 110.581 122.509 110.533 123.13C110.485 123.655 110.45 124.239 110.426 124.881C110.402 125.524 110.402 126.18 110.426 126.846C110.426 126.966 110.306 127.084 110.069 127.203C109.832 127.323 109.568 127.412 109.283 127.471C108.997 127.53 108.723 127.561 108.461 127.561C108.2 127.561 108.056 127.513 108.032 127.417C107.984 127.321 107.937 127.155 107.889 126.916C107.841 126.678 107.793 126.339 107.745 125.896C107.697 125.456 107.662 124.884 107.638 124.18C107.614 123.479 107.625 122.625 107.673 121.625C107.769 119.647 107.78 118.118 107.708 117.033C107.636 115.949 107.588 115.134 107.564 114.585L107.568 114.587ZM109.176 110.799C109.32 110.799 109.479 110.745 109.657 110.638C109.836 110.532 110.001 110.405 110.158 110.264C110.313 110.12 110.444 109.965 110.55 109.8C110.657 109.634 110.712 109.49 110.712 109.371C110.712 109.181 110.616 109.085 110.426 109.085C110.306 109.085 110.158 109.133 109.98 109.229C109.801 109.325 109.627 109.438 109.461 109.569C109.294 109.7 109.158 109.843 109.05 109.998C108.943 110.153 108.888 110.301 108.888 110.444C108.888 110.682 108.984 110.802 109.174 110.802L109.176 110.799Z" fill="#EB2F96"></path><path d="M123.947 126.274C123.923 126.418 123.799 126.566 123.573 126.721C123.346 126.875 123.085 127.013 122.786 127.132C122.488 127.252 122.209 127.328 121.945 127.365C121.682 127.4 121.503 127.372 121.41 127.276C121.314 127.18 121.159 127.002 120.946 126.74C120.732 126.479 120.599 126.05 120.554 125.453C120.506 124.834 120.482 124.055 120.482 123.111C120.482 122.168 120.469 121.127 120.447 119.984V118.555C120.447 118.126 120.44 117.625 120.429 117.054C120.416 116.483 120.399 115.886 120.375 115.268C120.588 115.148 120.808 115.035 121.037 114.928C121.264 114.821 121.471 114.732 121.662 114.66C121.876 114.564 122.078 114.495 122.27 114.447C122.771 114.303 123.15 114.22 123.414 114.196C123.675 114.172 123.83 114.255 123.878 114.447C123.901 114.59 123.888 114.935 123.843 115.483C123.795 115.96 123.736 116.681 123.664 117.646C123.592 118.611 123.472 119.951 123.307 121.667C123.616 120.905 123.873 120.249 124.076 119.703C124.278 119.156 124.45 118.714 124.594 118.38C124.738 117.975 124.869 117.655 124.986 117.415C125.106 117.106 125.261 116.76 125.45 116.379C125.64 115.997 125.838 115.64 126.04 115.307C126.243 114.974 126.433 114.675 126.611 114.414C126.79 114.153 126.927 113.998 127.023 113.95C127.095 113.902 127.308 113.902 127.665 113.95C128.023 113.998 128.404 114.111 128.809 114.29C129.214 114.468 129.606 114.719 129.987 115.041C130.368 115.364 130.619 115.751 130.739 116.202C130.883 116.727 130.935 117.418 130.9 118.276C130.865 119.134 130.804 120.016 130.721 120.92C130.639 121.826 130.573 122.685 130.525 123.493C130.477 124.303 130.525 124.921 130.669 125.351C130.717 125.588 130.789 125.804 130.883 125.993C130.93 126.185 130.996 126.357 131.079 126.512C131.161 126.666 131.251 126.779 131.346 126.851C130.776 127.115 130.31 127.304 129.952 127.422C129.595 127.542 129.321 127.625 129.131 127.673C128.894 127.744 128.726 127.768 128.63 127.744C128.417 127.673 128.232 127.494 128.077 127.209C127.922 126.923 127.785 126.47 127.665 125.852C127.617 125.662 127.6 125.346 127.611 124.904C127.622 124.464 127.652 123.963 127.7 123.403C127.748 122.844 127.8 122.26 127.861 121.652C127.92 121.044 127.968 120.474 128.005 119.936C128.042 119.398 128.071 118.936 128.094 118.542C128.118 118.15 128.118 117.879 128.094 117.738C127.975 117.309 127.809 117.006 127.593 116.827C127.378 116.649 127.212 116.631 127.093 116.773C126.783 117.13 126.454 117.707 126.11 118.507C125.764 119.306 125.437 120.175 125.128 121.116C124.818 122.057 124.557 122.992 124.341 123.922C124.126 124.852 123.995 125.638 123.949 126.281L123.947 126.274Z" fill="#EB2F96"></path><path d="M144.685 127.631C143.017 127.631 141.732 127.071 140.826 125.952C139.92 124.832 139.469 123.366 139.469 121.556C139.469 120.293 139.654 119.108 140.022 118.001C140.39 116.893 140.885 115.934 141.505 115.124C142.124 114.314 142.845 113.678 143.668 113.212C144.492 112.746 145.354 112.515 146.258 112.515C147.162 112.515 147.89 112.83 148.51 113.462C149.129 114.094 149.44 114.993 149.44 116.161C149.44 116.923 149.273 117.679 148.939 118.431C148.606 119.182 148.171 119.849 147.635 120.432C147.099 121.016 146.509 121.487 145.866 121.844C145.224 122.201 144.603 122.38 144.008 122.38C143.627 122.38 143.305 122.332 143.043 122.236C142.78 122.14 142.542 121.998 142.329 121.807C142.401 123.164 142.697 124.111 143.222 124.647C143.745 125.183 144.424 125.451 145.258 125.451C145.829 125.451 146.337 125.331 146.777 125.094C147.217 124.856 147.593 124.582 147.903 124.272C148.212 123.963 148.462 123.647 148.654 123.325C148.844 123.003 148.977 122.759 149.046 122.593C149.118 122.449 149.242 122.38 149.421 122.38C149.599 122.38 149.689 122.523 149.689 122.809C149.689 123.072 149.599 123.471 149.421 124.007C149.242 124.543 148.95 125.078 148.545 125.614C148.14 126.15 147.622 126.621 146.99 127.026C146.358 127.431 145.589 127.633 144.685 127.633V127.631ZM146.33 114.052C146.186 114.052 145.918 114.201 145.526 114.499C145.134 114.797 144.716 115.231 144.276 115.804C143.834 116.374 143.431 117.061 143.061 117.858C142.69 118.657 142.459 119.555 142.364 120.556C143.792 120.223 144.925 119.698 145.759 118.984C146.594 118.269 147.01 117.222 147.01 115.839C147.01 115.148 146.927 114.678 146.759 114.427C146.591 114.177 146.45 114.052 146.33 114.052Z" fill="#EB2F96"></path></svg>