<svg width="153" height="36" viewBox="0 0 153 36" fill="none" xmlns="http://www.w3.org/2000/svg">
<path d="M28.3163 0.265427H7.41823C3.32103 0.265427 0 3.58646 0 7.68366V28.5818C0 32.679 3.32103 36 7.41823 36H28.3163C32.4135 36 35.7346 32.679 35.7346 28.5818V7.68366C35.7346 3.58646 32.4135 0.265427 28.3163 0.265427ZM5.31639 7.40891L5.33357 7.39173C6.42226 6.31334 8.15662 5.96991 9.77764 5.90122C12.3637 5.82566 13.9538 6.79072 14.4243 9.76488C14.7746 11.98 14.9326 13.9479 12.7278 14.9473C11.4811 15.5483 10.3546 15.6857 8.81601 15.8746C6.69014 16.0429 4.46467 15.0298 4.48528 10.2011C4.48871 9.15357 4.69821 7.99275 5.31296 7.41234L5.31639 7.40891ZM9.09076 30.9583C5.4469 30.5256 4.5677 27.3523 4.91457 23.6912C5.2271 20.3736 10.2035 19.3914 11.2681 19.4704C11.3987 19.4807 11.5326 19.4807 11.6631 19.4841C14.5583 19.5631 15.173 22.8945 15.331 26.71C15.4959 30.6252 12.7346 31.3911 9.09076 30.9583ZM18.3292 8.76892L18.3395 8.73801C19.284 5.73294 23.1167 5.40667 25.8024 5.58183C26.9872 5.65738 28.2408 5.86688 29.1475 6.63618C30.4834 7.75235 30.7788 9.65499 30.7513 11.3172C30.6757 14.7585 28.1549 16.3726 24.8957 16.1906C22.684 16.0395 19.205 15.696 18.2846 13.2782C17.7041 11.6847 17.8759 10.3693 18.3326 8.77235L18.3292 8.76892ZM25.0022 30.7695C21.2175 30.845 18.6314 29.5468 18.4769 25.3741C18.3086 20.8819 21.3137 19.9134 22.6805 19.5872C25.5929 18.8969 27.7291 19.3605 28.9654 20.5522C30.5968 22.1217 30.7788 23.7943 30.7788 25.7003C30.7788 30.1135 28.5293 30.6973 25.0022 30.7695Z" fill="#68B47E"/>
<path d="M108.684 11.85C111.091 6.66756 111.476 2.62875 113.626 0.417015C114.759 -0.750669 116.995 0.822277 118.008 1.61562C120.629 3.66593 122.981 7.16211 126.474 7.95201C127.377 8.15464 127.628 8.30918 128.17 7.52272C129.269 5.93947 129.548 3.76209 132.189 4.19482C133.343 4.38371 136.303 7.1415 137.416 7.97262C137.783 8.24736 139.099 9.25363 139.435 9.30171C139.916 9.3704 141.242 8.3504 141.846 8.09282C142.341 7.88332 142.938 7.66352 143.474 7.60514C146.053 7.32008 151.493 9.91647 152.465 12.4407C154.553 17.8773 143.845 18.0868 140.795 18.3307C131.309 19.0828 121.422 18.8389 111.922 18.1521C111.06 18.0903 108.691 17.9666 108.038 17.6404C107.492 17.3656 107.008 16.4864 107.039 15.8785C107.083 15.0371 108.268 12.7361 108.68 11.85H108.684ZM118.544 11.3383C117.586 10.3698 115.051 11.7951 116.59 13.3852C117.826 14.6593 119.478 12.2828 118.544 11.3383ZM131.639 11.8535C129.321 12.4304 131.57 16.1945 133.377 13.9587C134.356 12.7498 133.027 11.5066 131.639 11.8535ZM145.524 12.6056C145.28 12.2175 143.704 12.0114 143.512 12.7464C143.113 14.2747 145.15 14.2953 145.511 13.3543C145.586 13.1619 145.627 12.7739 145.521 12.6056H145.524Z" fill="#024966"/>
<path d="M48.9296 34.4189V27.4781H45.9348V25.2045H54.5757V27.4781H51.5809V34.4189H48.9296Z" fill="#231815"/>
<path d="M66.0017 25.2045H63.3435V34.4189H66.0017V25.2045Z" fill="#231815"/>
<path d="M99.0608 34.4189L95.2865 28.9686V34.4189H92.8103V25.2045H95.3346L99.1261 30.6926V25.2045H101.609V34.4189H99.0608Z" fill="#231815"/>
<path d="M118.191 34.4189L116.415 28.2199L114.646 34.4189H111.991L109.941 25.2045H112.435L113.509 30.3973L115.079 25.2045H117.751L119.331 30.3973L120.399 25.2045H122.878L120.845 34.4189H118.191Z" fill="#231815"/>
<path d="M150.59 25.2045H147.932V34.4189H150.59V25.2045Z" fill="#231815"/>
<path d="M133.844 32.4888V30.6514H138.412V30.4385V28.7831V28.7213H133.844V27.1312H138.625V26.9457V25.2045H132.199H131.186V34.4189H132.343H138.913V32.5506V32.4888H133.844Z" fill="#231815"/>
<path d="M81.707 34.4189H84.4717L81.0099 25.2045H78.0048L74.543 34.4189H77.3076L77.8194 32.8494H81.2022L81.7139 34.4189H81.707ZM78.5371 30.6274L79.5056 27.6498L80.4741 30.6274H78.5371Z" fill="#231815"/>
<path d="M45.8897 2.23955L45.8794 18.072H48.0843V17.2409H58.5831V18.072H60.788V2.23955H45.8897ZM52.2295 15.0394H48.0843V10.8186H52.2295V15.0394ZM52.2295 8.6103H48.0843V4.44785H52.2295V8.6103ZM58.5797 15.0394H54.4344V10.8186H58.5797V15.0394ZM58.5797 8.6103H54.4344V4.44785H58.5797V8.6103Z" fill="#231815"/>
<path d="M81.2568 1.8568H66.9835V10.0065C66.9904 13.6676 65.9361 16.3773 65.1633 17.6274L67.2343 18.6749C68.1341 17.205 69.0785 14.5811 69.2228 10.0443V6.9843H81.2568V1.84992V1.8568ZM79.0519 5.00268H69.2228V3.96893H79.0519V5.00268Z" fill="#231815"/>
<path d="M74.8862 12.5089H81.2226V10.5273H74.8862V9.72708H81.2226V7.74544H70.1605V9.72708H72.726V10.5273H70.1605V12.5089H72.726V13.3091H69.6179V15.2907H72.726V16.0772C72.7123 16.352 72.7191 17.2758 73.3717 17.9936C73.7014 18.3576 74.3196 18.7938 75.3705 18.7938H81.9782V16.6336H75.9268L75.5559 16.6267C74.8347 16.6267 74.8897 15.9261 74.8897 15.9261V15.4316V15.2907H81.9851V13.3091H74.8931V12.5089H74.8862Z" fill="#231815"/>
<path d="M102.416 2.23955H93.5173V4.44442H102.416V2.23955Z" fill="#231815"/>
<path d="M93.5173 8.73272H98.5487V15.8075C98.5487 15.8075 98.6036 16.5081 97.8824 16.5081L97.5115 16.515H95.5848V18.6752H98.0679C99.1188 18.6752 99.7335 18.239 100.067 17.875C100.719 17.1572 100.726 16.2334 100.712 15.9586V8.73272H102.419V6.52786H93.5208V8.73272H93.5173Z" fill="#231815"/>
<path d="M85.9789 7.56859L86.6864 8.41344C89.4408 6.10555 91.2541 3.78049 91.9067 2.88755L91.0172 2.23845L90.1277 1.58936C89.5232 2.41704 87.8404 4.57382 85.2749 6.72373L85.9824 7.56859H85.9789Z" fill="#231815"/>
<path d="M90.2065 7.18254C89.1796 8.29527 87.4934 9.97467 85.3057 11.6747L85.9822 12.547L86.6588 13.4193C87.3628 12.8733 88.0085 12.3306 88.6095 11.8052V18.6773H90.8144V9.7377C91.2025 9.34618 91.5459 8.98558 91.8413 8.66962L92.8201 7.57405L91.175 6.10415L90.2099 7.18597L90.2065 7.18254Z" fill="#231815"/>
</svg>
