<svg width="153" height="36" viewBox="0 0 153 36" fill="none" xmlns="http://www.w3.org/2000/svg">
<path d="M28.316 0.265869H7.41815C3.321 0.265869 0 3.58687 0 7.68402V28.5819C0 32.6791 3.321 36.0001 7.41815 36.0001H28.316C32.4132 36.0001 35.7342 32.6791 35.7342 28.5819V7.68402C35.7342 3.58687 32.4132 0.265869 28.316 0.265869ZM5.31634 7.40928L5.33351 7.3921C6.42219 6.31372 8.15653 5.97029 9.77754 5.9016C12.3636 5.82605 13.9537 6.7911 14.4242 9.76523C14.7745 11.9804 14.9325 13.9482 12.7276 14.9476C11.481 15.5486 10.3545 15.686 8.81592 15.8749C6.69007 16.0432 4.46463 15.0301 4.48523 10.2014C4.48867 9.15392 4.69816 7.99311 5.31291 7.41271L5.31634 7.40928ZM9.09067 30.9585C5.44685 30.5257 4.56766 27.3524 4.91452 23.6914C5.22705 20.3739 10.2034 19.3917 11.268 19.4706C11.3985 19.4809 11.5325 19.4809 11.663 19.4844C14.5581 19.5634 15.1729 22.8947 15.3308 26.7102C15.4957 30.6253 12.7345 31.3912 9.09067 30.9585ZM18.329 8.76927L18.3393 8.73836C19.2838 5.73333 23.1165 5.40706 25.8021 5.58221C26.987 5.65777 28.2405 5.86727 29.1472 6.63656C30.4831 7.75271 30.7785 9.65533 30.751 11.3175C30.6754 14.7587 28.1546 16.3729 24.8955 16.1909C22.6837 16.0397 19.2048 15.6963 18.2844 13.2785C17.704 11.685 17.8757 10.3697 18.3325 8.77271L18.329 8.76927ZM25.0019 30.7696C21.2173 30.8451 18.6312 29.547 18.4767 25.3743C18.3084 20.8822 21.3134 19.9137 22.6803 19.5874C25.5926 18.8971 27.7288 19.3607 28.9651 20.5525C30.5964 22.1219 30.7785 23.7945 30.7785 25.7005C30.7785 30.1136 28.529 30.6975 25.0019 30.7696Z" fill="white"/>
<path d="M108.683 11.8499C111.09 6.6675 111.475 2.62872 113.625 0.417016C114.758 -0.750656 116.994 0.822274 118.007 1.6156C120.627 3.6659 122.98 7.16204 126.473 7.95194C127.376 8.15456 127.627 8.30911 128.169 7.52264C129.268 5.93942 129.546 3.76205 132.187 4.19478C133.341 4.38367 136.302 7.14143 137.414 7.97254C137.782 8.24729 139.097 9.25354 139.434 9.30162C139.915 9.37031 141.24 8.35032 141.845 8.09274C142.339 7.88325 142.937 7.66345 143.473 7.60506C146.052 7.32002 151.492 9.91638 152.464 12.4406C154.552 17.8772 143.843 18.0866 140.794 18.3305C131.308 19.0826 121.421 18.8388 111.921 18.1519C111.059 18.0901 108.69 17.9664 108.037 17.6402C107.491 17.3654 107.007 16.4862 107.038 15.8784C107.082 15.037 108.267 12.736 108.679 11.8499H108.683ZM118.543 11.3382C117.585 10.3697 115.05 11.795 116.589 13.385C117.825 14.6592 119.477 12.2826 118.543 11.3382ZM131.638 11.8533C129.32 12.4303 131.569 16.1943 133.376 13.9586C134.354 12.7497 133.025 11.5065 131.638 11.8533ZM145.523 12.6055C145.279 12.2174 143.703 12.0113 143.51 12.7463C143.112 14.2745 145.149 14.2951 145.509 13.3541C145.585 13.1618 145.626 12.7737 145.519 12.6055H145.523Z" fill="white"/>
<path d="M48.9288 34.4191V27.4784H45.9341V25.2048H54.5749V27.4784H51.5801V34.4191H48.9288Z" fill="white"/>
<path d="M66.001 25.2048H63.3428V34.4191H66.001V25.2048Z" fill="white"/>
<path d="M99.0598 34.4191L95.2855 28.9689V34.4191H92.8093V25.2048H95.3336L99.1251 30.6929V25.2048H101.608V34.4191H99.0598Z" fill="white"/>
<path d="M118.189 34.4191L116.413 28.2202L114.645 34.4191H111.99L109.94 25.2048H112.433L113.508 30.3975L115.077 25.2048H117.749L119.329 30.3975L120.397 25.2048H122.877L120.844 34.4191H118.189Z" fill="white"/>
<path d="M150.588 25.2048H147.93V34.4191H150.588V25.2048Z" fill="white"/>
<path d="M133.842 32.4891V30.6517H138.41V30.4388V28.7834V28.7216H133.842V27.1315H138.623V26.946V25.2048H132.197H131.184V34.4191H132.342H138.912V32.5509V32.4891H133.842Z" fill="white"/>
<path d="M81.706 34.4191H84.4706L81.0088 25.2048H78.0038L74.542 34.4191H77.3066L77.8183 32.8497H81.2012L81.7129 34.4191H81.706ZM78.5361 30.6276L79.5046 27.6501L80.4731 30.6276H78.5361Z" fill="white"/>
<path d="M45.8895 2.2384L45.8792 18.0707H48.084V17.2396H58.5827V18.0707H60.7876V2.2384H45.8895ZM52.2292 15.0382H48.084V10.8174H52.2292V15.0382ZM52.2292 8.60909H48.084V4.44669H52.2292V8.60909ZM58.5793 15.0382H54.4341V10.8174H58.5793V15.0382ZM58.5793 8.60909H54.4341V4.44669H58.5793V8.60909Z" fill="white"/>
<path d="M81.2561 1.85734H66.983V10.007C66.9899 13.668 65.9356 16.3777 65.1628 17.6278L67.2337 18.6753C68.1335 17.2054 69.078 14.5815 69.2222 10.0448V6.98479H81.2561V1.85046V1.85734ZM79.0513 5.00319H69.2222V3.96945H79.0513V5.00319Z" fill="white"/>
<path d="M74.8854 12.5076H81.2218V10.5259H74.8854V9.72576H81.2218V7.74414H70.1598V9.72576H72.7253V10.5259H70.1598V12.5076H72.7253V13.3078H69.6172V15.2894H72.7253V16.0758C72.7115 16.3506 72.7184 17.2744 73.3709 17.9922C73.7006 18.3562 74.3188 18.7924 75.3697 18.7924H81.9773V16.6322H75.926L75.5551 16.6253C74.8339 16.6253 74.8889 15.9247 74.8889 15.9247V15.4302V15.2894H81.9842V13.3078H74.8923V12.5076H74.8854Z" fill="white"/>
<path d="M102.415 2.2384H93.5168V4.44325H102.415V2.2384Z" fill="white"/>
<path d="M93.5168 8.7312H98.5481V15.8059C98.5481 15.8059 98.6031 16.5065 97.8819 16.5065L97.511 16.5134H95.5843V18.6736H98.0673C99.1182 18.6736 99.733 18.2374 100.066 17.8734C100.719 17.1556 100.725 16.2318 100.712 15.957V8.7312H102.419V6.52637H93.5203V8.7312H93.5168Z" fill="white"/>
<path d="M85.9784 7.56657L86.6859 8.41141C89.4403 6.10354 91.2536 3.7785 91.9061 2.88558L91.0166 2.23649L90.1271 1.5874C89.5227 2.41508 87.8399 4.57183 85.2744 6.72172L85.9819 7.56657H85.9784Z" fill="white"/>
<path d="M90.2062 7.18166C89.1793 8.29438 87.4931 9.97376 85.3054 11.6738L85.982 12.5461L86.6585 13.4184C87.3626 12.8723 88.0082 12.3297 88.6092 11.8043V18.6763H90.8141V9.73679C91.2022 9.34527 91.5456 8.98467 91.8409 8.66872L92.8197 7.57316L91.1747 6.10327L90.2096 7.18508L90.2062 7.18166Z" fill="white"/>
</svg>
