<svg width="153" height="28" viewBox="0 0 153 28" fill="none" xmlns="http://www.w3.org/2000/svg">
<path d="M18.413 2.24181L30.3971 9.68767L18.4039 17.1967L6.37243 9.80652L18.4312 2.2782L18.413 2.24181ZM18.413 1.01367L3.77734 9.82422L18.3949 18.2889L33.2217 9.72411L18.3949 1.01367H18.413Z" fill="#00B6F0"/>
<path d="M18.5019 2.93359L30.0403 9.70824L18.5019 16.3443L7.40976 9.81981L18.5213 2.94298L18.5019 2.93359ZM18.5213 0L2.90625 9.81981L18.5019 19.2541L34.3209 9.70824L18.5019 0H18.5213Z" fill="#00B6F0"/>
<path fill-rule="evenodd" clip-rule="evenodd" d="M26.2061 14.0944L18.4013 9.64008V9.6583L10.9201 14.1451L7.8384 12.4441L18.4013 6.06641V6.07552L29.2373 12.4648L26.2061 14.0944ZM7.64005 16.1123L6.15623 17.0022L18.4013 23.4698L31.3012 17.0022L29.3631 15.8961L32.1471 14.1805L36.9326 17.0022L18.4013 27.1727L0.289062 17.0022L4.70686 14.3348L7.64005 16.1123Z" fill="#00B6F0"/>
<mask id="path-4-outside-1_5386_111910" maskUnits="userSpaceOnUse" x="45.2305" y="3.54688" width="108" height="19" fill="black">
<rect fill="white" x="45.2305" y="3.54688" width="108" height="19"/>
<path d="M53.538 22.2464H51.5836C51.3451 22.2464 51.1891 22.1179 51.1157 21.861L46.2435 4.95977C46.1885 4.68451 46.3077 4.54688 46.6014 4.54688H47.9501C48.1887 4.54688 48.3355 4.67533 48.3906 4.93225L52.492 19.9892H52.6021L56.7036 4.93225C56.7586 4.67533 56.9054 4.54688 57.144 4.54688H58.5203C58.7956 4.54688 58.9057 4.68451 58.8506 4.95977L53.9784 21.861C53.905 22.1179 53.7582 22.2464 53.538 22.2464Z"/>
<path d="M65.8935 4.93225V21.861C65.8935 22.1179 65.7651 22.2464 65.5081 22.2464H64.2695C64.0125 22.2464 63.8841 22.1179 63.8841 21.861V4.93225C63.8841 4.67533 64.0125 4.54688 64.2695 4.54688H65.5081C65.7651 4.54688 65.8935 4.67533 65.8935 4.93225Z"/>
<path d="M74.0747 22.2464H72.836C72.5791 22.2464 72.4506 22.1179 72.4506 21.861V4.93225C72.4506 4.67533 72.5791 4.54688 72.836 4.54688H79.1671C80.4333 4.54688 81.4334 4.91389 82.1674 5.64793C82.9015 6.36362 83.2685 7.35457 83.2685 8.62079V11.1257C83.2685 12.1533 83.0208 13.0067 82.5253 13.6857C82.0298 14.3463 81.3417 14.7867 80.4608 15.0069V15.117L83.6539 21.806C83.819 22.0996 83.7273 22.2464 83.3786 22.2464H82.1399C81.828 22.2464 81.5986 22.1179 81.4518 21.861L78.3688 15.1996H74.7353C74.5518 15.1996 74.46 15.2822 74.46 15.4473V21.861C74.46 22.1179 74.3316 22.2464 74.0747 22.2464ZM74.7353 13.5205H78.8918C80.47 13.5205 81.2591 12.7314 81.2591 11.1532V8.70337C81.2591 7.10683 80.47 6.30857 78.8918 6.30857H74.7353C74.5518 6.30857 74.46 6.39114 74.46 6.5563V13.2728C74.46 13.4379 74.5518 13.5205 74.7353 13.5205Z"/>
<path d="M89.1071 18.1725V17.2916C89.1071 17.0347 89.2356 16.9062 89.4925 16.9062H90.7312C90.9881 16.9062 91.1166 17.0347 91.1166 17.2916V18.0073C91.1166 19.6589 91.9332 20.4847 93.5664 20.4847H95.9887C97.622 20.4847 98.4386 19.6405 98.4386 17.9522V17.0164C98.4386 15.6951 97.3467 14.8326 95.1629 14.4289C94.2454 14.2637 93.3278 14.071 92.4103 13.8508C91.4927 13.6306 90.7128 13.2085 90.0705 12.5846C89.4283 11.9423 89.1071 11.0706 89.1071 9.96958V8.62079C89.1071 7.35457 89.465 6.36362 90.1807 5.64793C90.9147 4.91389 91.9148 4.54688 93.181 4.54688H96.2365C97.4843 4.54688 98.4753 4.91389 99.2093 5.64793C99.9434 6.36362 100.31 7.35457 100.31 8.62079V9.30895C100.31 9.58421 100.191 9.72185 99.9525 9.72185H98.6863C98.4478 9.72185 98.3285 9.58421 98.3285 9.30895V8.81347C98.3285 7.14353 97.5119 6.30857 95.8786 6.30857H93.5389C91.9056 6.30857 91.089 7.18024 91.089 8.92358V10.0246C91.089 10.9605 91.7038 11.6028 92.9333 11.9515C93.4838 12.0983 94.0894 12.2359 94.75 12.3644C95.4107 12.4745 96.0713 12.6305 96.7319 12.8323C97.4109 13.0158 98.0257 13.2544 98.5762 13.548C99.1267 13.8233 99.5672 14.2545 99.8975 14.8418C100.246 15.4106 100.42 16.108 100.42 16.9338V18.1725C100.42 19.4387 100.053 20.4388 99.3194 21.1728C98.5854 21.8885 97.5944 22.2464 96.3466 22.2464H93.181C91.9332 22.2464 90.9422 21.8885 90.2082 21.1728C89.4741 20.4388 89.1071 19.4387 89.1071 18.1725Z"/>
<path d="M110.652 20.4847H113.459C115.001 20.4847 115.772 19.6864 115.772 18.0899V8.70337C115.772 7.10683 115.001 6.30857 113.459 6.30857H110.652C109.129 6.30857 108.367 7.10683 108.367 8.70337V18.0899C108.367 19.6864 109.129 20.4847 110.652 20.4847ZM113.707 22.2464H110.432C109.165 22.2464 108.165 21.8885 107.431 21.1728C106.715 20.4572 106.358 19.457 106.358 18.1725V8.62079C106.358 7.33622 106.715 6.33609 107.431 5.62041C108.165 4.90472 109.165 4.54688 110.432 4.54688H113.707C114.973 4.54688 115.964 4.91389 116.68 5.64793C117.414 6.36362 117.781 7.35457 117.781 8.62079V18.1725C117.781 19.4387 117.414 20.4388 116.68 21.1728C115.964 21.8885 114.973 22.2464 113.707 22.2464Z"/>
<path d="M126.197 20.4847H130.821C132.363 20.4847 133.134 19.6864 133.134 18.0899V8.70337C133.134 7.10683 132.363 6.30857 130.821 6.30857H126.197C126.013 6.30857 125.922 6.39114 125.922 6.5563V20.2369C125.922 20.4021 126.013 20.4847 126.197 20.4847ZM123.912 21.861V4.93225C123.912 4.67533 124.041 4.54688 124.298 4.54688H131.069C132.335 4.54688 133.326 4.91389 134.042 5.64793C134.776 6.36362 135.143 7.35457 135.143 8.62079V18.1725C135.143 19.4387 134.776 20.4388 134.042 21.1728C133.326 21.8885 132.335 22.2464 131.069 22.2464H124.298C124.041 22.2464 123.912 22.1179 123.912 21.861Z"/>
<path d="M146.585 22.2464H145.346C145.089 22.2464 144.961 22.1179 144.961 21.861V15.6125L139.731 4.95977C139.676 4.83131 139.676 4.73038 139.731 4.65698C139.786 4.58358 139.868 4.54688 139.978 4.54688H141.52C141.722 4.54688 141.878 4.67533 141.988 4.93225L145.924 13.2728H146.062L149.97 4.93225C150.044 4.67533 150.191 4.54688 150.411 4.54688H151.98C152.292 4.54688 152.374 4.68451 152.228 4.95977L146.97 15.6125V21.861C146.97 22.1179 146.842 22.2464 146.585 22.2464Z"/>
</mask>
<path d="M53.538 22.2464H51.5836C51.3451 22.2464 51.1891 22.1179 51.1157 21.861L46.2435 4.95977C46.1885 4.68451 46.3077 4.54688 46.6014 4.54688H47.9501C48.1887 4.54688 48.3355 4.67533 48.3906 4.93225L52.492 19.9892H52.6021L56.7036 4.93225C56.7586 4.67533 56.9054 4.54688 57.144 4.54688H58.5203C58.7956 4.54688 58.9057 4.68451 58.8506 4.95977L53.9784 21.861C53.905 22.1179 53.7582 22.2464 53.538 22.2464Z" fill="white"/>
<path d="M65.8935 4.93225V21.861C65.8935 22.1179 65.7651 22.2464 65.5081 22.2464H64.2695C64.0125 22.2464 63.8841 22.1179 63.8841 21.861V4.93225C63.8841 4.67533 64.0125 4.54688 64.2695 4.54688H65.5081C65.7651 4.54688 65.8935 4.67533 65.8935 4.93225Z" fill="white"/>
<path d="M74.0747 22.2464H72.836C72.5791 22.2464 72.4506 22.1179 72.4506 21.861V4.93225C72.4506 4.67533 72.5791 4.54688 72.836 4.54688H79.1671C80.4333 4.54688 81.4334 4.91389 82.1674 5.64793C82.9015 6.36362 83.2685 7.35457 83.2685 8.62079V11.1257C83.2685 12.1533 83.0208 13.0067 82.5253 13.6857C82.0298 14.3463 81.3417 14.7867 80.4608 15.0069V15.117L83.6539 21.806C83.819 22.0996 83.7273 22.2464 83.3786 22.2464H82.1399C81.828 22.2464 81.5986 22.1179 81.4518 21.861L78.3688 15.1996H74.7353C74.5518 15.1996 74.46 15.2822 74.46 15.4473V21.861C74.46 22.1179 74.3316 22.2464 74.0747 22.2464ZM74.7353 13.5205H78.8918C80.47 13.5205 81.2591 12.7314 81.2591 11.1532V8.70337C81.2591 7.10683 80.47 6.30857 78.8918 6.30857H74.7353C74.5518 6.30857 74.46 6.39114 74.46 6.5563V13.2728C74.46 13.4379 74.5518 13.5205 74.7353 13.5205Z" fill="white"/>
<path d="M89.1071 18.1725V17.2916C89.1071 17.0347 89.2356 16.9062 89.4925 16.9062H90.7312C90.9881 16.9062 91.1166 17.0347 91.1166 17.2916V18.0073C91.1166 19.6589 91.9332 20.4847 93.5664 20.4847H95.9887C97.622 20.4847 98.4386 19.6405 98.4386 17.9522V17.0164C98.4386 15.6951 97.3467 14.8326 95.1629 14.4289C94.2454 14.2637 93.3278 14.071 92.4103 13.8508C91.4927 13.6306 90.7128 13.2085 90.0705 12.5846C89.4283 11.9423 89.1071 11.0706 89.1071 9.96958V8.62079C89.1071 7.35457 89.465 6.36362 90.1807 5.64793C90.9147 4.91389 91.9148 4.54688 93.181 4.54688H96.2365C97.4843 4.54688 98.4753 4.91389 99.2093 5.64793C99.9434 6.36362 100.31 7.35457 100.31 8.62079V9.30895C100.31 9.58421 100.191 9.72185 99.9525 9.72185H98.6863C98.4478 9.72185 98.3285 9.58421 98.3285 9.30895V8.81347C98.3285 7.14353 97.5119 6.30857 95.8786 6.30857H93.5389C91.9056 6.30857 91.089 7.18024 91.089 8.92358V10.0246C91.089 10.9605 91.7038 11.6028 92.9333 11.9515C93.4838 12.0983 94.0894 12.2359 94.75 12.3644C95.4107 12.4745 96.0713 12.6305 96.7319 12.8323C97.4109 13.0158 98.0257 13.2544 98.5762 13.548C99.1267 13.8233 99.5672 14.2545 99.8975 14.8418C100.246 15.4106 100.42 16.108 100.42 16.9338V18.1725C100.42 19.4387 100.053 20.4388 99.3194 21.1728C98.5854 21.8885 97.5944 22.2464 96.3466 22.2464H93.181C91.9332 22.2464 90.9422 21.8885 90.2082 21.1728C89.4741 20.4388 89.1071 19.4387 89.1071 18.1725Z" fill="white"/>
<path d="M110.652 20.4847H113.459C115.001 20.4847 115.772 19.6864 115.772 18.0899V8.70337C115.772 7.10683 115.001 6.30857 113.459 6.30857H110.652C109.129 6.30857 108.367 7.10683 108.367 8.70337V18.0899C108.367 19.6864 109.129 20.4847 110.652 20.4847ZM113.707 22.2464H110.432C109.165 22.2464 108.165 21.8885 107.431 21.1728C106.715 20.4572 106.358 19.457 106.358 18.1725V8.62079C106.358 7.33622 106.715 6.33609 107.431 5.62041C108.165 4.90472 109.165 4.54688 110.432 4.54688H113.707C114.973 4.54688 115.964 4.91389 116.68 5.64793C117.414 6.36362 117.781 7.35457 117.781 8.62079V18.1725C117.781 19.4387 117.414 20.4388 116.68 21.1728C115.964 21.8885 114.973 22.2464 113.707 22.2464Z" fill="white"/>
<path d="M126.197 20.4847H130.821C132.363 20.4847 133.134 19.6864 133.134 18.0899V8.70337C133.134 7.10683 132.363 6.30857 130.821 6.30857H126.197C126.013 6.30857 125.922 6.39114 125.922 6.5563V20.2369C125.922 20.4021 126.013 20.4847 126.197 20.4847ZM123.912 21.861V4.93225C123.912 4.67533 124.041 4.54688 124.298 4.54688H131.069C132.335 4.54688 133.326 4.91389 134.042 5.64793C134.776 6.36362 135.143 7.35457 135.143 8.62079V18.1725C135.143 19.4387 134.776 20.4388 134.042 21.1728C133.326 21.8885 132.335 22.2464 131.069 22.2464H124.298C124.041 22.2464 123.912 22.1179 123.912 21.861Z" fill="white"/>
<path d="M146.585 22.2464H145.346C145.089 22.2464 144.961 22.1179 144.961 21.861V15.6125L139.731 4.95977C139.676 4.83131 139.676 4.73038 139.731 4.65698C139.786 4.58358 139.868 4.54688 139.978 4.54688H141.52C141.722 4.54688 141.878 4.67533 141.988 4.93225L145.924 13.2728H146.062L149.97 4.93225C150.044 4.67533 150.191 4.54688 150.411 4.54688H151.98C152.292 4.54688 152.374 4.68451 152.228 4.95977L146.97 15.6125V21.861C146.97 22.1179 146.842 22.2464 146.585 22.2464Z" fill="white"/>
<path d="M53.538 22.2464H51.5836C51.3451 22.2464 51.1891 22.1179 51.1157 21.861L46.2435 4.95977C46.1885 4.68451 46.3077 4.54688 46.6014 4.54688H47.9501C48.1887 4.54688 48.3355 4.67533 48.3906 4.93225L52.492 19.9892H52.6021L56.7036 4.93225C56.7586 4.67533 56.9054 4.54688 57.144 4.54688H58.5203C58.7956 4.54688 58.9057 4.68451 58.8506 4.95977L53.9784 21.861C53.905 22.1179 53.7582 22.2464 53.538 22.2464Z" stroke="white" stroke-width="0.552825" stroke-linejoin="bevel" mask="url(#path-4-outside-1_5386_111910)"/>
<path d="M65.8935 4.93225V21.861C65.8935 22.1179 65.7651 22.2464 65.5081 22.2464H64.2695C64.0125 22.2464 63.8841 22.1179 63.8841 21.861V4.93225C63.8841 4.67533 64.0125 4.54688 64.2695 4.54688H65.5081C65.7651 4.54688 65.8935 4.67533 65.8935 4.93225Z" stroke="white" stroke-width="0.552825" stroke-linejoin="bevel" mask="url(#path-4-outside-1_5386_111910)"/>
<path d="M74.0747 22.2464H72.836C72.5791 22.2464 72.4506 22.1179 72.4506 21.861V4.93225C72.4506 4.67533 72.5791 4.54688 72.836 4.54688H79.1671C80.4333 4.54688 81.4334 4.91389 82.1674 5.64793C82.9015 6.36362 83.2685 7.35457 83.2685 8.62079V11.1257C83.2685 12.1533 83.0208 13.0067 82.5253 13.6857C82.0298 14.3463 81.3417 14.7867 80.4608 15.0069V15.117L83.6539 21.806C83.819 22.0996 83.7273 22.2464 83.3786 22.2464H82.1399C81.828 22.2464 81.5986 22.1179 81.4518 21.861L78.3688 15.1996H74.7353C74.5518 15.1996 74.46 15.2822 74.46 15.4473V21.861C74.46 22.1179 74.3316 22.2464 74.0747 22.2464ZM74.7353 13.5205H78.8918C80.47 13.5205 81.2591 12.7314 81.2591 11.1532V8.70337C81.2591 7.10683 80.47 6.30857 78.8918 6.30857H74.7353C74.5518 6.30857 74.46 6.39114 74.46 6.5563V13.2728C74.46 13.4379 74.5518 13.5205 74.7353 13.5205Z" stroke="white" stroke-width="0.552825" stroke-linejoin="bevel" mask="url(#path-4-outside-1_5386_111910)"/>
<path d="M89.1071 18.1725V17.2916C89.1071 17.0347 89.2356 16.9062 89.4925 16.9062H90.7312C90.9881 16.9062 91.1166 17.0347 91.1166 17.2916V18.0073C91.1166 19.6589 91.9332 20.4847 93.5664 20.4847H95.9887C97.622 20.4847 98.4386 19.6405 98.4386 17.9522V17.0164C98.4386 15.6951 97.3467 14.8326 95.1629 14.4289C94.2454 14.2637 93.3278 14.071 92.4103 13.8508C91.4927 13.6306 90.7128 13.2085 90.0705 12.5846C89.4283 11.9423 89.1071 11.0706 89.1071 9.96958V8.62079C89.1071 7.35457 89.465 6.36362 90.1807 5.64793C90.9147 4.91389 91.9148 4.54688 93.181 4.54688H96.2365C97.4843 4.54688 98.4753 4.91389 99.2093 5.64793C99.9434 6.36362 100.31 7.35457 100.31 8.62079V9.30895C100.31 9.58421 100.191 9.72185 99.9525 9.72185H98.6863C98.4478 9.72185 98.3285 9.58421 98.3285 9.30895V8.81347C98.3285 7.14353 97.5119 6.30857 95.8786 6.30857H93.5389C91.9056 6.30857 91.089 7.18024 91.089 8.92358V10.0246C91.089 10.9605 91.7038 11.6028 92.9333 11.9515C93.4838 12.0983 94.0894 12.2359 94.75 12.3644C95.4107 12.4745 96.0713 12.6305 96.7319 12.8323C97.4109 13.0158 98.0257 13.2544 98.5762 13.548C99.1267 13.8233 99.5672 14.2545 99.8975 14.8418C100.246 15.4106 100.42 16.108 100.42 16.9338V18.1725C100.42 19.4387 100.053 20.4388 99.3194 21.1728C98.5854 21.8885 97.5944 22.2464 96.3466 22.2464H93.181C91.9332 22.2464 90.9422 21.8885 90.2082 21.1728C89.4741 20.4388 89.1071 19.4387 89.1071 18.1725Z" stroke="white" stroke-width="0.552825" stroke-linejoin="bevel" mask="url(#path-4-outside-1_5386_111910)"/>
<path d="M110.652 20.4847H113.459C115.001 20.4847 115.772 19.6864 115.772 18.0899V8.70337C115.772 7.10683 115.001 6.30857 113.459 6.30857H110.652C109.129 6.30857 108.367 7.10683 108.367 8.70337V18.0899C108.367 19.6864 109.129 20.4847 110.652 20.4847ZM113.707 22.2464H110.432C109.165 22.2464 108.165 21.8885 107.431 21.1728C106.715 20.4572 106.358 19.457 106.358 18.1725V8.62079C106.358 7.33622 106.715 6.33609 107.431 5.62041C108.165 4.90472 109.165 4.54688 110.432 4.54688H113.707C114.973 4.54688 115.964 4.91389 116.68 5.64793C117.414 6.36362 117.781 7.35457 117.781 8.62079V18.1725C117.781 19.4387 117.414 20.4388 116.68 21.1728C115.964 21.8885 114.973 22.2464 113.707 22.2464Z" stroke="white" stroke-width="0.552825" stroke-linejoin="bevel" mask="url(#path-4-outside-1_5386_111910)"/>
<path d="M126.197 20.4847H130.821C132.363 20.4847 133.134 19.6864 133.134 18.0899V8.70337C133.134 7.10683 132.363 6.30857 130.821 6.30857H126.197C126.013 6.30857 125.922 6.39114 125.922 6.5563V20.2369C125.922 20.4021 126.013 20.4847 126.197 20.4847ZM123.912 21.861V4.93225C123.912 4.67533 124.041 4.54688 124.298 4.54688H131.069C132.335 4.54688 133.326 4.91389 134.042 5.64793C134.776 6.36362 135.143 7.35457 135.143 8.62079V18.1725C135.143 19.4387 134.776 20.4388 134.042 21.1728C133.326 21.8885 132.335 22.2464 131.069 22.2464H124.298C124.041 22.2464 123.912 22.1179 123.912 21.861Z" stroke="white" stroke-width="0.552825" stroke-linejoin="bevel" mask="url(#path-4-outside-1_5386_111910)"/>
<path d="M146.585 22.2464H145.346C145.089 22.2464 144.961 22.1179 144.961 21.861V15.6125L139.731 4.95977C139.676 4.83131 139.676 4.73038 139.731 4.65698C139.786 4.58358 139.868 4.54688 139.978 4.54688H141.52C141.722 4.54688 141.878 4.67533 141.988 4.93225L145.924 13.2728H146.062L149.97 4.93225C150.044 4.67533 150.191 4.54688 150.411 4.54688H151.98C152.292 4.54688 152.374 4.68451 152.228 4.95977L146.97 15.6125V21.861C146.97 22.1179 146.842 22.2464 146.585 22.2464Z" stroke="white" stroke-width="0.552825" stroke-linejoin="bevel" mask="url(#path-4-outside-1_5386_111910)"/>
</svg>
